<svg xmlns="http://www.w3.org/2000/svg" viewBox="11041.529 -1114 124.492 15.258"><defs><style>.a{fill:#5cb0e2;}.b{fill:#1b5d85;}</style></defs><g transform="translate(10471.579 -7042.38)"><path class="a" d="M483.75-663.16H479.6v12.072h-2.683V-663.16h-4.149v-2.6H483.75v2.6" transform="translate(97.182 6594.433)"/><path class="a" d="M502.55-663.512h-2.075v4.463h1.97a3.466,3.466,0,0,0,2.326-.585,2.211,2.211,0,0,0,.629-1.7,2.082,2.082,0,0,0-.608-1.647,3.471,3.471,0,0,0-2.243-.534Zm6.476,12.428h-2.855l-2.972-5.448h-2.724v5.449h-2.682v-14.671h5.354q5.041,0,5.041,4.234a4.589,4.589,0,0,1-.652,2.568,5.8,5.8,0,0,1-1.853,1.725l3.344,6.145" transform="translate(89.259 6594.428)"/><path class="a" d="M533.5-652.541a5.721,5.721,0,0,1-4.548,1.75,5.72,5.72,0,0,1-4.548-1.75,7.085,7.085,0,0,1-1.53-4.831v-8.383h2.682v7.469a7.442,7.442,0,0,0,.723,3.609,2.792,2.792,0,0,0,2.673,1.287,2.792,2.792,0,0,0,2.672-1.287,7.447,7.447,0,0,0,.724-3.609v-7.469h2.683v8.383a7.1,7.1,0,0,1-1.53,4.831" transform="translate(81.318 6594.43)"/><path class="b" d="M563.556-651.088h-2.682v-6.35h-6.917v6.35h-2.682v-14.671h2.682v5.722h6.917v-5.722h2.682v14.671" transform="translate(72.329 6594.433)"/><path class="b" d="M589.229-662.211a3.86,3.86,0,0,0-3.186-1.378,3.85,3.85,0,0,0-3.186,1.378,5.627,5.627,0,0,0-1.111,3.653,5.663,5.663,0,0,0,1.111,3.652,3.856,3.856,0,0,0,3.186,1.377,3.852,3.852,0,0,0,3.186-1.377,5.651,5.651,0,0,0,1.111-3.652A5.644,5.644,0,0,0,589.229-662.211Zm2.022,9.169a6.9,6.9,0,0,1-5.208,2.112,6.892,6.892,0,0,1-5.209-2.112,7.653,7.653,0,0,1-2.022-5.516,7.646,7.646,0,0,1,2.022-5.515,6.891,6.891,0,0,1,5.209-2.114,6.89,6.89,0,0,1,5.208,2.114,7.652,7.652,0,0,1,2.021,5.515,7.64,7.64,0,0,1-2.021,5.516" transform="translate(63.611 6594.568)"/><path class="b" d="M623.837-651.086h-2.666l-1.277-10.1-3.863,6.944-3.641-6.654-1.273,9.809h-2.773l1.947-14.671h2.231l3.631,6.681,3.571-6.681h2.2l1.912,14.671" transform="translate(54.262 6594.43)"/><path class="b" d="M650.48-651.088h-9.6v-14.671h9.389v2.6h-6.6v3.123h5.114v2.6h-5.114v3.752h6.811v2.6" transform="translate(43.961 6594.433)"/></g></svg>